# xmcd
# 
# Track frame offsets:
#   150
#   15285
#   29275
#   46450
#   61262
#   81060
#   104815
#   118482
#   132115
#   145432
#   158772
#   168760
#   179832
#   199640
#   217077
# 
# Disc length: 3084 seconds
# 
# Revision: 3
# Processed by: cddbd v1.5.2PL0 Copyright (c) Steve Scherf et al.
# Submitted via: Synapstar 1.0 
# 
DISCID=d80c0a0f
DTITLE=Various Artist - SC7539
DYEAR=1900
DGENRE=Country
TTITLE0=Anne Murray - Just Another Woman In Love
TTITLE1=Anne Murray - I Just Fall In Love Again
TTITLE2=Juice Newton - Queen Of Hearts
TTITLE3=Patsy Cline - So Wrong
TTITLE4=Don Williams - I Believe In You
TTITLE5=John Denver - Rocky Mountain High
TTITLE6=Hank Williams Jr - I'm So Lonesome I Could Cry
TTITLE7=Freddie Fender - Wasted Days And Wasted Nights
TTITLE8=Don Gibson - Oh Lonesome Me
TTITLE9=Johnny Preston - Running Bear
TTITLE10=Roger Miller - Dang Me
TTITLE11=Merle Haggard - Mama Tried
TTITLE12=Johnny Lee - Lookin' For Love
TTITLE13=Ronnie Milsap - It Was Almost Like A Song
TTITLE14=Glen Campbell - By The Time I Get To Phoenix
EXTD=MediaType: Karaoke CD+G Producer: Sound Choice
EXTT0=
EXTT1=
EXTT2=
EXTT3=
EXTT4=
EXTT5=
EXTT6=
EXTT7=
EXTT8=
EXTT9=
EXTT10=
EXTT11=
EXTT12=
EXTT13=
EXTT14=
PLAYORDER=
